<svg xmlns="http://www.w3.org/2000/svg"
 xmlns:xlink="http://www.w3.org/1999/xlink"
 width="36px" height="32px"  viewBox="0 0 36 32">
<path fill-rule="evenodd"  fill="#222222"
 d="M3.1835938,4.363575 C3.1835938,4.363575 6.57666,4.363575 6.57666,4.363575 C6.57666,4.363575 11.409912,21.818947 11.409912,21.818947 C11.547852,22.331047 12.021362,22.68563 12.553955,22.68563 C12.553955,22.68563 27.40857,22.68563 27.40857,22.68563 C27.881958,22.68563 28.296265,22.4096 28.49353,21.9766 C28.49353,21.9766 33.89868,9.564785 33.89868,9.564785 C34.05652,9.190357 34.01709,8.776516 33.80017,8.441772 C33.583008,8.107033 33.208252,7.909691 32.81372,7.909691 C32.81372,7.909691 16.400757,7.909691 16.400757,7.909691 C15.749756,7.909691 15.217163,8.441772 15.217163,9.091957 C15.217163,9.742008 15.749756,10.27409 16.400757,10.27409 C16.400757,10.27409 30.998901,10.27409 30.998901,10.27409 C30.998901,10.27409 26.619507,20.321644 26.619507,20.321644 C26.619507,20.321644 13.44165,20.321644 13.44165,20.321644 C13.44165,20.321644 8.6085205,2.8662758 8.6085205,2.8662758 C8.470581,2.3541756 7.9970703,1.9991798 7.4643555,1.9991798 C7.4643555,1.9991798 3.1835938,1.9991798 3.1835938,1.9991798 C2.5325928,1.9991798 2.0,2.5313988 2.0,3.1815834 C2.0,3.831768 2.5325928,4.363575 3.1835938,4.363575 ZM11.429443,30.999405 C12.909058,30.999405 14.112427,29.797981 14.112427,28.320114 C14.112427,26.842522 12.909058,25.641228 11.429443,25.641228 C9.949951,25.641228 8.746582,26.842522 8.746582,28.320114 C8.746582,29.79757 9.949951,30.999405 11.429443,30.999405 ZM28.197632,30.999405 C28.256836,30.999405 28.335815,30.999405 28.39502,30.999405 C29.105103,30.940422 29.756104,30.625252 30.229614,30.073463 C30.703003,29.541794 30.920044,28.852196 30.880493,28.123459 C30.781982,26.665161 29.499756,25.542286 28.020142,25.641228 C26.540527,25.739216 25.435791,27.039589 25.534546,28.497475 C25.633179,29.896103 26.796997,30.999405 28.197632,30.999405 Z"/>
</svg>